PathFileType	4	(X/Y/Z)	/Users/itak/Documents/Research/Walk-IL/dataset/trc/00577_00009.trc
DataRate	CameraRate	NumFrames	NumMarkers	Units	OrigDataRate	OrigDataStartFrame	OrigNumFrames
100.000000	100.000000	4	53	mm	100.000000	279	559
Frame#	Time	RPSI			LPSI			L3			STRN			T10			C7			CLAV			RBAK			LBAK			LSHO			LUPA			LAEL			LAOL			LWTS			LWPS			LFRA			LIFD			LHPS			LHTS			RSHO			RUPA			RAEL			RAOL			RWTS			RWPS			RFRA			RIFD			RHTS			RHPS			RBHD			LFHD			RFHD			LBHD			LHIP			RHIP			RASI			LASI			LKNE			LTHI			LANK			LTIP			LTOE			LMT1			LMT5			LHEE			RKNE			RTHI			RANK			RTIP			RTOE			RMT1			RMT5			RHEE			
		X1	Y1	Z1	X2	Y2	Z2	X3	Y3	Z3	X4	Y4	Z4	X5	Y5	Z5	X6	Y6	Z6	X7	Y7	Z7	X8	Y8	Z8	X9	Y9	Z9	X10	Y10	Z10	X11	Y11	Z11	X12	Y12	Z12	X13	Y13	Z13	X14	Y14	Z14	X15	Y15	Z15	X16	Y16	Z16	X17	Y17	Z17	X18	Y18	Z18	X19	Y19	Z19	X20	Y20	Z20	X21	Y21	Z21	X22	Y22	Z22	X23	Y23	Z23	X24	Y24	Z24	X25	Y25	Z25	X26	Y26	Z26	X27	Y27	Z27	X28	Y28	Z28	X29	Y29	Z29	X30	Y30	Z30	X31	Y31	Z31	X32	Y32	Z32	X33	Y33	Z33	X34	Y34	Z34	X35	Y35	Z35	X36	Y36	Z36	X37	Y37	Z37	X38	Y38	Z38	X39	Y39	Z39	X40	Y40	Z40	X41	Y41	Z41	X42	Y42	Z42	X43	Y43	Z43	X44	Y44	Z44	X45	Y45	Z45	X46	Y46	Z46	X47	Y47	Z47	X48	Y48	Z48	X49	Y49	Z49	X50	Y50	Z50	X51	Y51	Z51	X52	Y52	Z52	X53	Y53	Z53	

280	2.79	-419.0515441894531	989.0524291992188	404.9569091796875	-368.3833312988281	987.7013549804688	280.7878112792969	-385.5250244140625	1085.828002929688	335.7975463867188	-169.3415985107422	1271.017456054688	425.4265441894531	-390.1861877441406	1210.98974609375	329.6881713867188	-352.30908203125	1485.0087890625	363.0447387695312	-188.2257080078125	1382.919921875	420.9298706054688	-448.8955688476562	1357.767211914062	410.3526611328125	-346.9367370605469	1433.97119140625	262.8901977539062	-224.4166564941406	1458.079711914062	226.4399108886719	-198.8357238769531	1331.257202148438	150.8020324707031	-158.0369720458984	1113.068481445312	142.2737579345703	-258.0085754394531	1096.509643554688	152.0375671386719	-67.99320220947266	886.4666137695312	239.6698455810547	-73.96209716796875	857.92529296875	157.5127258300781	-125.2153625488281	1030.618774414062	150.1055297851562	-67.04940795898438	723.2456665039062	248.0661163330078	-63.33462524414062	799.4432983398438	172.0292205810547	-35.8690071105957	811.47705078125	233.1912536621094	-360.5757446289062	1443.252807617188	528.5531005859375	-406.9994201660156	1378.75341796875	581.1798706054688	-449.9802856445312	1090.36865234375	607.1261596679688	-486.4747009277344	1080.390014648438	555.32373046875	-352.6663818359375	848.1212158203125	632.09619140625	-428.9432067871094	840.9805908203125	664.5916137695312	-452.7955932617188	1035.461669921875	616.0281372070312	-384.9604187011719	677.0980224609375	624.6104736328125	-356.2105712890625	752.5475463867188	653.0687255859375	-428.7601013183594	764.6967163085938	667.41259765625	-273.9766235351562	1670.312622070312	472.1051025390625	-100.1253128051758	1670.983032226562	358.5398254394531	-135.1957702636719	1676.581787109375	498.5819396972656	-226.0875244140625	1662.407592773438	313.7248840332031	-203.2411804199219	903.1078491210938	208.7486572265625	-342.2107849121094	931.7369384765625	568.9906005859375	-243.1847381591797	963.7933959960938	541.12841796875	-147.8681030273438	932.090087890625	283.9181518554688	-199.0123596191406	453.620361328125	268.5322570800781	-186.4018859863281	623.875	244.75927734375	-578.1683959960938	188.5624084472656	124.5708618164062	-404.2225646972656	317.7493286132812	186.7782897949219	-470.2436828613281	36.47571563720703	226.0948028564453	-528.7263793945312	85.67434692382812	239.4888763427734	-500.1275024414062	97.58960723876953	139.0763244628906	-636.2811889648438	239.9913177490234	160.3296966552734	-184.2655792236328	513.1919555664062	593.8802490234375	-272.1250305175781	790.65576171875	598.9375610351562	-249.5101470947266	35.20970153808594	588.7728271484375	-168.8194580078125	365.1634216308594	595.1023559570312	-24.57140159606934	43.69051361083984	583.4173583984375	-80.9365234375	44.19739151000977	533.4589233398438	-122.1480102539062	37.05336761474609	631.1122436523438	-292.8551635742188	27.99534606933594	522.9608764648438	
281	2.8	-411.709228515625	991.2493896484375	411.1806945800781	-362.7795104980469	989.2527465820312	286.3430480957031	-378.6495666503906	1087.793579101562	341.9062194824219	-161.0679168701172	1272.466064453125	427.9889526367188	-383.4858093261719	1212.9814453125	336.0079956054688	-344.6818237304688	1486.917358398438	369.0600891113281	-179.8580169677734	1384.383178710938	423.8991088867188	-440.7182312011719	1359.860229492188	418.0296936035156	-341.2647094726562	1435.850952148438	268.8698425292969	-219.3015899658203	1459.89404296875	230.146728515625	-195.7771453857422	1333.172607421875	153.6697692871094	-156.7729797363281	1114.670532226562	143.6184844970703	-256.7002563476562	1099.091918945312	155.0559692382812	-67.95461273193359	885.9365844726562	237.6042175292969	-75.86663818359375	858.20068359375	155.3425903320312	-124.8220367431641	1031.710205078125	150.2489013671875	-69.62459564208984	722.5243530273438	244.5743408203125	-66.06911468505859	799.3724975585938	169.2236785888672	-37.26914215087891	810.3988037109375	229.9440765380859	-350.0117797851562	1445.006469726562	534.661376953125	-395.7574768066406	1380.67431640625	588.0509643554688	-439.2612915039062	1092.456665039062	614.94189453125	-476.6856079101562	1082.321411132812	563.9359741210938	-340.582275390625	850.7015991210938	638.3286743164062	-416.2751770019531	843.0943603515625	672.118896484375	-441.7983703613281	1037.465087890625	623.917724609375	-371.5083923339844	679.5296630859375	632.0650634765625	-343.0127868652344	755.314697265625	659.7449951171875	-415.4127197265625	766.841796875	675.2181396484375	-264.5308837890625	1671.8564453125	476.9633178710938	-92.86913299560547	1672.78857421875	360.1561279296875	-125.3335266113281	1678.182373046875	500.7816772460938	-219.6162872314453	1664.112426757812	317.6958923339844	-198.5978240966797	904.5810546875	212.0474395751953	-333.0101318359375	933.5542602539062	574.0537109375	-234.1042633056641	965.1251831054688	544.8209228515625	-142.5382232666016	933.7347412109375	286.1693725585938	-184.2250823974609	455.4351501464844	273.6849975585938	-175.8577423095703	625.6605224609375	248.7889404296875	-568.8934326171875	195.4019012451172	136.6762390136719	-392.1882629394531	322.2297668457031	195.9949798583984	-457.1443481445312	39.47264099121094	230.1306457519531	-515.0574951171875	89.16542053222656	247.2640228271484	-490.6655578613281	103.6407470703125	145.9078521728516	-625.770751953125	245.8127288818359	175.9465942382812	-180.5713806152344	512.7577514648438	595.6688232421875	-264.0580749511719	791.752197265625	602.7249755859375	-249.4918060302734	35.20410537719727	588.8186645507812	-166.6607971191406	364.636474609375	596.1101684570312	-24.6349983215332	43.69676971435547	583.42431640625	-80.92745971679688	44.26352310180664	533.3860473632812	-122.1021041870117	37.01263046264648	631.0849609375	-292.9199829101562	28.05539321899414	523.037353515625	
282	2.81	-404.4439392089844	993.36376953125	417.2438354492188	-357.2129821777344	990.732421875	291.7474975585938	-371.9762268066406	1089.77587890625	347.8230895996094	-152.8923645019531	1273.841918945312	430.3548278808594	-376.86279296875	1214.9638671875	342.1980895996094	-337.0542297363281	1488.795288085938	374.9983825683594	-171.5580749511719	1385.760864257812	426.674560546875	-432.5445251464844	1361.960693359375	425.6518249511719	-335.6651306152344	1437.735717773438	274.77880859375	-214.3387145996094	1461.654907226562	233.7715759277344	-192.9068298339844	1335.076416015625	156.4165344238281	-155.6978912353516	1116.306762695312	144.7794036865234	-255.5823822021484	1101.678833007812	157.8561401367188	-68.11358642578125	885.5786743164062	235.4761657714844	-77.85248565673828	858.6514892578125	153.1485595703125	-124.6072082519531	1032.880004882812	150.2569274902344	-72.22210693359375	721.9983520507812	241.1083984375	-68.82273864746094	799.5213623046875	166.4205474853516	-38.80282592773438	809.5685424804688	226.7024536132812	-339.3424682617188	1446.734008789062	540.656494140625	-384.3777465820312	1382.57666015625	594.82568359375	-428.3533935546875	1094.540283203125	622.7697143554688	-466.7522888183594	1084.214111328125	572.6227416992188	-328.2590637207031	853.308349609375	644.404541015625	-403.2497253417969	845.2135009765625	679.5955200195312	-430.5631103515625	1039.460571289062	631.829345703125	-357.6483459472656	681.9949951171875	639.4884643554688	-329.4805297851562	758.125244140625	666.3200073242188	-401.642578125	769.016357421875	683.0007934570312	-255.0368347167969	1673.332153320312	481.6452941894531	-85.62583923339844	1674.5166015625	361.6117553710938	-115.5055160522461	1679.686401367188	502.7701721191406	-213.13037109375	1665.73974609375	321.5439147949219	-193.9605712890625	906.171142578125	215.1958618164062	-323.8515014648438	935.266357421875	578.9036865234375	-225.0902862548828	966.4110107421875	548.2841796875	-137.3102722167969	935.4686279296875	288.2411804199219	-169.5888977050781	457.5875549316406	278.5329284667969	-165.4287567138672	627.6712646484375	252.4908599853516	-558.390625	200.6091003417969	149.0896453857422	-379.7044067382812	326.1257934570312	205.1803283691406	-442.7129821777344	42.76944351196289	236.0594329833984	-500.3186645507812	92.32096099853516	256.2012939453125	-479.6056823730469	108.7156524658203	154.0708618164062	-614.3446655273438	249.9728851318359	191.2462463378906	-177.0193786621094	512.3113403320312	597.3038330078125	-256.0303039550781	792.781005859375	606.231201171875	-249.4391021728516	35.21799087524414	588.8509521484375	-164.6119232177734	364.1342163085938	596.9920043945312	-24.66805648803711	43.69805908203125	583.4659423828125	-80.89994812011719	44.32411193847656	533.3407592773438	-122.0515441894531	36.95483779907227	631.0820922851562	-292.9422607421875	28.14911651611328	523.0936279296875	
283	2.82	-397.2423095703125	995.39013671875	423.1455993652344	-351.7062377929688	992.1410522460938	296.9983825683594	-365.4961853027344	1091.768310546875	353.5610961914062	-144.8164825439453	1275.148681640625	432.5359802246094	-370.303955078125	1216.923583984375	348.2588806152344	-329.4294128417969	1490.627685546875	380.8503112792969	-163.3263854980469	1387.061157226562	429.2636413574219	-424.3584594726562	1364.046752929688	433.2018127441406	-330.12353515625	1439.610961914062	280.6209411621094	-209.5250396728516	1463.361938476562	237.3237457275391	-190.2217559814453	1336.964599609375	159.0614166259766	-154.8293914794922	1117.9736328125	145.7759857177734	-254.6593933105469	1104.26513671875	160.4814605712891	-68.44808959960938	885.39306640625	233.2864837646484	-79.92396545410156	859.26708984375	150.9295043945312	-124.5869522094727	1034.122314453125	150.1449890136719	-74.76864624023438	721.6544799804688	237.6667633056641	-71.57154083251953	799.8872680664062	163.6024322509766	-40.42940521240234	808.9920043945312	223.4557189941406	-328.5947265625	1448.425170898438	546.5174560546875	-372.8843688964844	1384.455200195312	601.4888305664062	-417.2420349121094	1096.610595703125	630.5925903320312	-456.6581115722656	1086.079711914062	581.371337890625	-315.7228088378906	855.916748046875	650.3048706054688	-389.8760681152344	847.3366088867188	687.0101318359375	-419.0873107910156	1041.4404296875	639.7471313476562	-343.4516296386719	684.4827270507812	646.8280639648438	-315.657958984375	760.9456176757812	672.7634887695312	-387.484375	771.2171630859375	690.7276611328125	-245.4948577880859	1674.735717773438	486.1512145996094	-78.39926147460938	1676.145385742188	362.9133911132812	-105.6848373413086	1681.091552734375	504.5650024414062	-206.6257171630859	1667.286743164062	325.26953125	-189.3424682617188	907.8382568359375	218.2063751220703	-314.7510681152344	936.8767700195312	583.5542602539062	-216.1435546875	967.6587524414062	551.5442504882812	-132.1743774414062	937.264404296875	290.18115234375	-155.0974426269531	460.0150146484375	283.0935363769531	-155.1023406982422	629.8727416992188	255.8999328613281	-546.6549072265625	204.0634002685547	161.6734313964844	-366.73486328125	329.3175659179688	214.2904205322266	-427.1084899902344	46.06886672973633	243.9980010986328	-484.6597595214844	95.05400848388672	266.3452453613281	-467.0581359863281	112.5404968261719	163.5793762207031	-601.9879150390625	252.5059356689453	206.0058441162109	-173.6370086669922	511.8630065917969	598.8309326171875	-248.1079711914062	793.7140502929688	609.46044921875	-249.3581085205078	35.24995803833008	588.8734130859375	-162.6945037841797	363.6655883789062	597.7951049804688	-24.67229080200195	43.68892288208008	583.53515625	-80.85822296142578	44.379150390625	533.325927734375	-122.0063552856445	36.88521957397461	631.1119995117188	-292.9247436523438	28.27861595153809	523.1314697265625	
